#N canvas 313 620 973 567 10;
#X obj 81 120 oscmulticast @group 224.0.1.3 @port 7570;
#X obj 81 156 route /device;
#X obj 81 219 select /vector.1;
#X obj 48 498 sprintf /link %s /vector.1;
#X obj 380 74 hid;
#X floatatom 380 176 5 0 0 0 - - -;
#X floatatom 419 175 5 0 0 0 - - -;
#X floatatom 458 176 5 0 0 0 - - -;
#X obj 501 211 * 0.0025;
#X obj 502 237 + 0.5;
#X obj 377 276 max 0;
#X obj 377 308 min 1;
#X obj 378 241 +;
#X obj 437 275 max 0;
#X obj 437 307 min 1;
#X obj 438 240 +;
#X obj 375 337 pack f f;
#X obj 373 364 prepend /position;
#X obj 502 364 prepend /gain;
#X obj 609 370 loadbang;
#X msg 609 396 add output /position @type f @length 2 @min 0 @max 1
;
#X msg 608 423 add output /gain @type f @length 1 @min 0 @max 1;
#X obj 489 460 route name ordinal;
#X obj 214 498 sprintf /connect %s/position /vector.1/node/%i/position
;
#X obj 570 496 bng 15 250 50 0 empty empty empty 17 7 0 10 -262144
-1 -1;
#X msg 170 279 /agent.1;
#X obj 336 458 prepend set;
#X obj 81 189 unpack s;
#X obj 378 420 mapper @alias agent;
#X obj 380 27 loadbang;
#X msg 380 52 open multiaxiscontroller 0;
#X msg 659 58 poll 6;
#X obj 380 101 route rel;
#X obj 380 148 route rel_x rel_y rel_z;
#X floatatom 542 314 5 0 0 0 - - -;
#X floatatom 584 313 5 0 0 0 - - -;
#X msg 711 59 0;
#X obj 82 247 t b b;
#X msg 82 275 /agent.1;
#X obj 438 210 * 5e-05;
#X obj 379 210 * 5e-05;
#X text 652 31 start polling;
#X connect 0 0 1 0;
#X connect 1 0 27 0;
#X connect 2 0 37 0;
#X connect 3 0 0 0;
#X connect 4 0 32 0;
#X connect 5 0 40 0;
#X connect 6 0 39 0;
#X connect 7 0 8 0;
#X connect 8 0 9 0;
#X connect 9 0 18 0;
#X connect 10 0 11 0;
#X connect 11 0 12 1;
#X connect 11 0 16 0;
#X connect 11 0 34 0;
#X connect 12 0 10 0;
#X connect 13 0 14 0;
#X connect 14 0 15 1;
#X connect 14 0 16 1;
#X connect 14 0 35 0;
#X connect 15 0 13 0;
#X connect 16 0 17 0;
#X connect 17 0 28 0;
#X connect 18 0 28 0;
#X connect 19 0 20 0;
#X connect 19 0 21 0;
#X connect 20 0 28 0;
#X connect 21 0 28 0;
#X connect 22 0 26 0;
#X connect 22 1 23 1;
#X connect 22 1 24 0;
#X connect 23 0 0 0;
#X connect 24 0 20 0;
#X connect 24 0 21 0;
#X connect 25 0 3 0;
#X connect 26 0 25 0;
#X connect 26 0 38 0;
#X connect 27 0 2 0;
#X connect 28 1 22 0;
#X connect 29 0 30 0;
#X connect 30 0 4 0;
#X connect 31 0 4 0;
#X connect 32 0 33 0;
#X connect 33 0 5 0;
#X connect 33 1 6 0;
#X connect 33 2 7 0;
#X connect 36 0 4 0;
#X connect 37 0 38 0;
#X connect 37 1 25 0;
#X connect 38 0 23 0;
#X connect 39 0 15 0;
#X connect 40 0 12 0;
